<?xml version="1.0" standalone="no"?>
<!DOCTYPE svg PUBLIC "-//W3C//DTD SVG 20010904//EN"
 "http://www.w3.org/TR/2001/REC-SVG-20010904/DTD/svg10.dtd">
<svg version="1.0" xmlns="http://www.w3.org/2000/svg"
 width="700.000000pt" height="700.000000pt" viewBox="0 0 700.000000 700.000000"
 preserveAspectRatio="xMidYMid meet">
<metadata>
Created by potrace 1.14, written by Peter Selinger 2001-2017
</metadata>
<g transform="translate(0.000000,700.000000) scale(0.100000,-0.100000)"
fill="#000000" stroke="none">
<path d="M2385 6927 c-16 -34 -55 -118 -88 -187 -32 -69 -68 -145 -79 -170
-11 -25 -45 -96 -74 -159 -30 -62 -54 -115 -54 -116 0 -2 -30 -65 -66 -141
-36 -77 -75 -159 -86 -184 -11 -25 -36 -79 -55 -120 -20 -41 -68 -145 -108
-230 -40 -85 -88 -189 -108 -230 -47 -101 -104 -222 -137 -295 -15 -33 -46
-100 -70 -150 -23 -49 -52 -112 -65 -140 -13 -27 -51 -108 -84 -179 -34 -70
-61 -129 -61 -131 0 -2 -27 -61 -61 -132 -69 -146 -80 -170 -179 -382 -39 -84
-86 -186 -104 -225 -19 -39 -63 -134 -98 -211 -36 -77 -91 -193 -122 -259 -31
-65 -56 -120 -56 -123 0 -2 -8 -15 -17 -30 -26 -39 -26 -61 0 -69 12 -4 697
-681 1521 -1505 825 -825 1503 -1499 1507 -1499 9 0 3051 3041 3047 3046 -2 2
-205 206 -451 453 l-448 448 24 54 c23 51 55 119 150 319 22 47 66 141 97 210
32 69 83 178 114 243 31 65 56 120 56 122 0 2 20 45 45 97 50 104 53 116 28
125 -10 3 -56 24 -103 46 -47 22 -107 50 -135 62 -27 12 -90 42 -140 65 -49
23 -121 57 -160 75 -70 32 -315 147 -455 212 -41 20 -102 48 -135 63 -33 15
-100 47 -150 70 -49 23 -124 58 -165 77 -41 19 -109 51 -150 70 -41 20 -176
83 -300 140 -124 58 -259 121 -300 140 -41 20 -100 47 -130 61 -30 13 -115 53
-189 88 -73 35 -135 64 -137 64 -1 0 -49 22 -106 49 -96 46 -149 70 -323 151
-38 18 -169 79 -290 135 -305 143 -360 168 -440 205 -38 18 -73 34 -76 36 -3
2 -19 -25 -34 -59z"/>
</g>
</svg>
